<svg xmlns="http://www.w3.org/2000/svg" version="1.1" xmlns:xlink="http://www.w3.org/1999/xlink" xmlns:svgjs="http://svgjs.dev/svgjs" width="1500" height="1500" viewBox="0 0 1500 1500"><rect width="1500" height="1500" fill="#ffffff"></rect><g transform="matrix(0.6666666666666666,0,0,0.6666666666666666,249.78425655976667,249.78425655976673)"><svg viewBox="0 0 343 343" data-background-color="#ffffff" preserveAspectRatio="xMidYMid meet" height="1500" width="1500" xmlns="http://www.w3.org/2000/svg" xmlns:xlink="http://www.w3.org/1999/xlink"><g id="tight-bounds" transform="matrix(1,0,0,1,0.0740000000000407,0.07400000000001228)"><svg viewBox="0 0 342.85155851775386 342.85155851775386" height="342.85155851775386" width="342.85155851775386"><g><svg></svg></g><g><svg viewBox="0 0 342.85155851775386 342.85155851775386" height="342.85155851775386" width="342.85155851775386"><g><path d="M0 171.426c0-94.676 76.75-171.426 171.426-171.426 94.676 0 171.426 76.75 171.426 171.426 0 94.676-76.75 171.426-171.426 171.426-94.676 0-171.426-76.75-171.426-171.426zM171.426 339.637c92.9 0 168.211-75.311 168.211-168.211 0-92.9-75.311-168.211-168.211-168.211-92.9 0-168.211 75.311-168.211 168.211 0 92.9 75.311 168.211 168.211 168.211z" data-fill-palette-color="tertiary" fill="#000000" stroke="transparent"></path><ellipse rx="164.56874808852186" ry="164.56874808852186" cx="171.42577925887693" cy="171.42577925887693" fill="#000000" stroke="transparent" stroke-width="0" fill-opacity="1" data-fill-palette-color="tertiary"></ellipse></g><g transform="matrix(1,0,0,1,64.84655864529837,124.76074968674158)"><svg viewBox="0 0 213.1584412271571 93.3300591442707" height="93.3300591442707" width="213.1584412271571"><g><svg viewBox="0 0 213.1584412271571 93.3300591442707" height="93.3300591442707" width="213.1584412271571"><g><svg viewBox="0 0 213.1584412271571 93.3300591442707" height="93.3300591442707" width="213.1584412271571"><g transform="matrix(1,0,0,1,0,57.6817207674357)"><svg viewBox="0 0 213.1584412271571 35.648338376835014" height="35.648338376835014" width="213.1584412271571"><g id="textblocktransform"><svg viewBox="0 0 213.1584412271571 35.648338376835014" height="35.648338376835014" width="213.1584412271571" id="textblock"><g><svg viewBox="0 0 213.1584412271571 35.648338376835014" height="35.648338376835014" width="213.1584412271571"><g transform="matrix(1,0,0,1,0,0)"><svg width="213.1584412271571" viewBox="2.1499999999999995 -39.95 320.48 53.6" height="35.648338376835014" data-palette-color="#ffffff"><path d="M32.65 0L9.45 0 2.3 0.15Q2-0.75 2.3-1.65L2.3-1.65 6.45-2.2Q6.65-4.75 6.65-8.1L6.65-8.1 6.65-37.6 2.6-38.1Q2.4-38.85 2.6-39.95L2.6-39.95Q5.35-39.75 9.45-39.75L9.45-39.75Q13.1-39.75 16.35-39.9L16.35-39.9Q16.65-39 16.35-38.1L16.35-38.1 12.2-37.5Q12-35.6 12-31.65L12-31.65 12-2.55 28.5-2.55 30.85-11.6Q31.6-11.8 32.7-11.6L32.7-11.6 32.65 0ZM36.1-13.3L36.1-13.3Q36.1-16.3 36.97-18.93 37.85-21.55 39.5-23.5 41.15-25.45 43.47-26.58 45.8-27.7 48.7-27.7L48.7-27.7Q51.55-27.7 53.9-26.58 56.25-25.45 57.92-23.5 59.6-21.55 60.5-18.93 61.4-16.3 61.4-13.3L61.4-13.3Q61.4-10.2 60.47-7.6 59.55-5 57.87-3.08 56.2-1.15 53.85-0.08 51.5 1 48.7 1L48.7 1Q45.75 1 43.42-0.05 41.1-1.1 39.47-3 37.85-4.9 36.97-7.53 36.1-10.15 36.1-13.3ZM43.4-22.5L43.4-22.5Q41.25-19.45 41.25-13.3L41.25-13.3Q41.25-10.25 41.82-7.95 42.4-5.65 43.4-4.13 44.4-2.6 45.75-1.85 47.1-1.1 48.7-1.1L48.7-1.1Q50.25-1.1 51.65-1.85 53.05-2.6 54.05-4.13 55.05-5.65 55.65-7.95 56.25-10.25 56.25-13.3L56.25-13.3Q56.25-16.35 55.65-18.68 55.05-21 54.02-22.53 53-24.05 51.62-24.83 50.25-25.6 48.7-25.6L48.7-25.6Q45.6-25.6 43.4-22.5ZM74.2-26.7L74.2-26.7 74.1-21.55Q75.35-23.85 77.57-25.78 79.8-27.7 81.8-27.7L81.8-27.7Q83.35-27.7 84.55-27.35L84.55-27.35Q84.95-26.7 84.95-25.65L84.95-25.65Q84.95-24 84.25-22.35L84.25-22.35Q82.45-22.85 80.8-22.85L80.8-22.85Q76.7-22.85 74.05-18.85L74.05-18.85 73.95-10.1 73.95-2.55 79.5-1.8Q79.7-1 79.5 0.2L79.5 0.2Q76.35 0.05 72.3 0.05L72.3 0.05Q69.25 0.05 65.05 0.15L65.05 0.15Q64.75-0.8 65.05-1.8L65.05-1.8 69-2.35Q69.2-5.1 69.2-8.7L69.2-8.7 69.2-22.4Q69.2-23.4 69.05-24.25L69.05-24.25 65.1-24.75Q64.9-25.5 65.1-26.65L65.1-26.65Q68.55-26.9 73.7-27.7L73.7-27.7Q74.15-27.2 74.2-26.7ZM108.14-14.1L108.14-14.1 92.44-14.1Q91.99-1.35 100.09-1.35L100.09-1.35Q103.54-1.35 107.14-4.4L107.14-4.4Q107.89-3.95 108.29-2.85L108.29-2.85Q104.84 1 99.54 1L99.54 1Q87.34 1 87.34-13.35L87.34-13.35Q87.34-20.15 90.94-23.93 94.54-27.7 99.34-27.7L99.34-27.7Q104.59-27.7 106.89-24.05 109.19-20.4 109.19-14.55L109.19-14.55Q108.69-14.15 108.14-14.1ZM99.24-25.7L99.24-25.7Q96.64-25.7 94.82-23 92.99-20.3 92.59-16.1L92.59-16.1 98.79-16.1Q102.49-16.1 104.09-16.55L104.09-16.55Q104.09-20.65 102.84-23.18 101.59-25.7 99.24-25.7ZM149.94-8.7L149.94-17.85Q149.94-24.8 145.49-24.8L145.49-24.8Q141.69-24.8 138.29-19.55L138.29-19.55 138.29-2.55 142.34-1.8Q142.54-1 142.34 0.2L142.34 0.2Q139.19 0.05 135.94 0.05L135.94 0.05Q133.64 0.05 129.44 0.15L129.44 0.15Q129.14-0.8 129.44-1.8L129.44-1.8 133.39-2.35Q133.59-5.1 133.59-8.7L133.59-8.7 133.59-17.85Q133.59-24.8 129.14-24.8L129.14-24.8Q126.89-24.8 125.19-23.43 123.49-22.05 121.69-19.15L121.69-19.15 121.69-2.55 125.74-1.8Q125.94-1 125.74 0.2L125.74 0.2Q122.59 0.05 119.34 0.05L119.34 0.05Q117.04 0.05 112.84 0.15L112.84 0.15Q112.54-0.8 112.84-1.8L112.84-1.8 116.79-2.35Q116.99-5.1 116.99-8.7L116.99-8.7 116.99-22.4Q116.99-23.4 116.84-24.25L116.84-24.25 112.89-24.75Q112.69-25.5 112.89-26.65L112.89-26.65Q116.24-26.9 121.44-27.7L121.44-27.7Q121.89-27.2 121.94-26.7L121.94-26.7Q121.69-25.4 121.69-22.25L121.69-22.25Q125.64-27.7 130.59-27.7L130.59-27.7Q133.19-27.7 135.34-26.38 137.49-25.05 138.09-22.3L138.09-22.3Q142.09-27.7 146.94-27.7L146.94-27.7Q149.99-27.7 152.32-25.9 154.64-24.1 154.64-20.35L154.64-20.35 154.64-2.55 158.69-1.8Q158.89-1 158.69 0.2L158.69 0.2Q155.54 0.05 152.29 0.05L152.29 0.05Q149.99 0.05 145.79 0.15L145.79 0.15Q145.49-0.8 145.79-1.8L145.79-1.8 149.74-2.35Q149.94-5.1 149.94-8.7L149.94-8.7ZM183.69-31.65L183.69-31.65 183.69-2.2 187.74-1.7Q187.94-0.95 187.74 0.15L187.74 0.15Q184.59 0 180.89 0L180.89 0Q178.19 0 173.99 0.1L173.99 0.1Q173.69-0.8 173.99-1.7L173.99-1.7 178.14-2.3Q178.34-4.2 178.34-8.15L178.34-8.15 178.34-37.6 174.29-38.1Q174.09-38.85 174.29-39.95L174.29-39.95Q177.04-39.75 181.14-39.75L181.14-39.75Q184.79-39.75 188.04-39.9L188.04-39.9Q188.34-39 188.04-38.1L188.04-38.1 183.89-37.5Q183.69-35.6 183.69-31.65ZM206.78-1.7L206.78-1.7Q210.08-1.7 212.01-4.9 213.93-8.1 213.93-14.55L213.93-14.55Q213.93-19.5 212.11-22.1 210.28-24.7 207.28-24.7L207.28-24.7Q202.88-24.7 199.68-20.45L199.68-20.45 199.68-4.9Q202.48-1.7 206.78-1.7ZM194.93 4.75L194.93-19.55Q194.93-22.9 194.78-24.25L194.78-24.25 190.83-24.75Q190.68-25.55 190.83-26.65L190.83-26.65Q194.33-26.9 199.43-27.7L199.43-27.7Q199.88-27.25 199.93-26.7L199.93-26.7Q199.68-24.95 199.68-23L199.68-23Q203.73-27.7 208.98-27.7L208.98-27.7Q213.38-27.7 216.31-24.05 219.23-20.4 219.23-14.4L219.23-14.4Q219.23-7.45 215.41-3.23 211.58 1 206.38 1L206.38 1Q202.73 1 199.68-1.35L199.68-1.35 199.68 10.9 204.73 11.65Q204.93 12.45 204.73 13.65L204.73 13.65Q201.58 13.5 197.78 13.5L197.78 13.5Q194.98 13.5 190.78 13.6L190.78 13.6Q190.48 12.6 190.78 11.65L190.78 11.65 194.73 11.1Q194.93 8.35 194.93 4.75L194.93 4.75ZM232.53-1.2L232.53-1.2Q235.23-1.2 236.53-2.45 237.83-3.7 237.83-5.35L237.83-5.35Q237.83-6.3 237.53-7.1 237.23-7.9 236.56-8.65 235.88-9.4 234.78-10.13 233.68-10.85 232.03-11.7L232.03-11.7Q229.98-12.75 228.51-13.7 227.03-14.65 226.08-15.7 225.13-16.75 224.66-17.95 224.18-19.15 224.18-20.65L224.18-20.65Q224.18-22.45 224.83-23.78 225.48-25.1 226.66-25.98 227.83-26.85 229.43-27.28 231.03-27.7 232.98-27.7L232.98-27.7Q236.88-27.7 240.58-25.8L240.58-25.8 240.58-19.4 238.23-19.4 237.13-24.8Q234.93-25.85 232.48-25.85L232.48-25.85Q228.38-25.85 228.38-22.5L228.38-22.5Q228.38-20.7 229.73-19.2 231.08-17.7 234.08-16.2L234.08-16.2Q236.13-15.15 237.68-14.2 239.23-13.25 240.26-12.2 241.28-11.15 241.81-9.93 242.33-8.7 242.33-7.15L242.33-7.15Q242.33-5.4 241.58-3.9 240.83-2.4 239.48-1.33 238.13-0.25 236.23 0.38 234.33 1 232.03 1L232.03 1Q227.58 1 223.68-0.9L223.68-0.9 223.68-7.3 226.03-7.3 227.13-2.35Q229.68-1.2 232.53-1.2ZM270.23-26.7L270.23-26.7 270.23-7.1Q270.23-3.75 270.38-2.4L270.38-2.4 274.33-1.9Q274.48-1.1 274.33 0L274.33 0Q270.68 0.15 266.73 0.7L266.73 0.7Q266.38 0.35 266.23-0.25L266.23-0.25 265.98-4.7Q263.88-2 261.65-0.5 259.43 1 256.43 1L256.43 1Q253.38 1 251.3-0.55 249.23-2.1 249.23-5.85L249.23-5.85 249.23-16.95Q249.23-22.65 249.08-24.25L249.08-24.25 245.13-24.75Q244.93-25.5 245.13-26.65L245.13-26.65Q248.58-26.9 253.73-27.7L253.73-27.7Q254.18-27.2 254.23-26.7L254.23-26.7Q253.98-25.4 253.98-8.35L253.98-8.35Q253.98-4.85 254.8-3.38 255.63-1.9 257.88-1.9L257.88-1.9Q262.08-1.9 265.48-6.9L265.48-6.9 265.48-17Q265.48-22.65 265.33-24.25L265.33-24.25 261.38-24.75Q261.18-25.5 261.38-26.65L261.38-26.65Q264.38-26.85 269.73-27.7L269.73-27.7Q270.18-27.2 270.23-26.7ZM313.78-8.7L313.78-17.85Q313.78-24.8 309.32-24.8L309.32-24.8Q305.53-24.8 302.13-19.55L302.13-19.55 302.13-2.55 306.18-1.8Q306.38-1 306.18 0.2L306.18 0.2Q303.03 0.05 299.78 0.05L299.78 0.05Q297.48 0.05 293.28 0.15L293.28 0.15Q292.98-0.8 293.28-1.8L293.28-1.8 297.23-2.35Q297.43-5.1 297.43-8.7L297.43-8.7 297.43-17.85Q297.43-24.8 292.98-24.8L292.98-24.8Q290.73-24.8 289.03-23.43 287.32-22.05 285.53-19.15L285.53-19.15 285.53-2.55 289.57-1.8Q289.78-1 289.57 0.2L289.57 0.2Q286.43 0.05 283.18 0.05L283.18 0.05Q280.88 0.05 276.68 0.15L276.68 0.15Q276.38-0.8 276.68-1.8L276.68-1.8 280.63-2.35Q280.82-5.1 280.82-8.7L280.82-8.7 280.82-22.4Q280.82-23.4 280.68-24.25L280.68-24.25 276.73-24.75Q276.53-25.5 276.73-26.65L276.73-26.65Q280.07-26.9 285.28-27.7L285.28-27.7Q285.73-27.2 285.78-26.7L285.78-26.7Q285.53-25.4 285.53-22.25L285.53-22.25Q289.48-27.7 294.43-27.7L294.43-27.7Q297.03-27.7 299.18-26.38 301.32-25.05 301.93-22.3L301.93-22.3Q305.93-27.7 310.78-27.7L310.78-27.7Q313.83-27.7 316.15-25.9 318.48-24.1 318.48-20.35L318.48-20.35 318.48-2.55 322.53-1.8Q322.73-1 322.53 0.2L322.53 0.2Q319.38 0.05 316.13 0.05L316.13 0.05Q313.83 0.05 309.63 0.15L309.63 0.15Q309.32-0.8 309.63-1.8L309.63-1.8 313.58-2.35Q313.78-5.1 313.78-8.7L313.78-8.7Z" opacity="1" transform="matrix(1,0,0,1,0,0)" fill="#ffffff" class="wordmark-text-0" data-fill-palette-color="quaternary" id="text-0"></path></svg></g></svg></g></svg></g></svg></g><g transform="matrix(1,0,0,1,81.94621879518556,0)"><svg viewBox="0 0 49.266003636785996 49.266003636785996" height="49.266003636785996" width="49.266003636785996"><g><svg version="1.1" xmlns:dc="http://purl.org/dc/elements/1.1/" xmlns:inkscape="http://www.inkscape.org/namespaces/inkscape" xmlns:rdf="http://www.w3.org/1999/02/22-rdf-syntax-ns#" xmlns:cc="http://creativecommons.org/ns#" xmlns:svg="http://www.w3.org/2000/svg" xmlns:sodipodi="http://sodipodi.sourceforge.net/DTD/sodipodi-0.dtd" xmlns="http://www.w3.org/2000/svg" xmlns:xlink="http://www.w3.org/1999/xlink" x="0" y="0" viewBox="0 0 100 100" enable-background="new 0 0 100 100" xml:space="preserve" height="49.266003636785996" width="49.266003636785996" class="icon-icon-0" data-fill-palette-color="quaternary" id="icon-0"><path d="M50 0C22.386 0 0 22.386 0 50s22.386 50 50 50 50-22.386 50-50S77.614 0 50 0zM50 14.156c19.799 0 35.844 16.044 35.844 35.844 0 19.799-16.045 35.844-35.844 35.844-19.799 0-35.844-16.045-35.844-35.844C14.156 30.201 30.201 14.156 50 14.156zM50 20.125c-16.505 0-29.875 13.37-29.875 29.875S33.495 79.875 50 79.875 79.875 66.505 79.875 50 66.505 20.125 50 20.125zM50 29.75c11.178 0 20.25 9.072 20.25 20.25S61.178 70.25 50 70.25 29.75 61.178 29.75 50 38.822 29.75 50 29.75z" fill="#ffffff" data-fill-palette-color="quaternary"></path></svg></g></svg></g><g></g></svg></g></svg></g></svg></g></svg></g><defs></defs></svg><rect width="342.85155851775386" height="342.85155851775386" fill="none" stroke="none" visibility="hidden"></rect></g></svg></g></svg>